<svg height="16" viewBox="0 0 79 16" width="79" xmlns="http://www.w3.org/2000/svg"><path d="m74.5592229 8.47955429c-.3406858 0-.6603429-.01988572-.9728-.06045715-.0058286-.75554285-.0058286-1.37291428-.0058286-2.18662857 0-.83611428 0-1.8792-.0061714-3.49165714.3184-.03062857.6058285-.0456.8745142-.0456 1.9537143 0 2.9443429.93977143 2.9443429 2.79302857 0 1.95691429-.98 2.99131429-2.8340571 2.99131429zm-.4549715-7.58102858c-.6081143 0-1.2618285.0608-1.9426285.18091429l-.1212572.02125714.0011429.12205715c.0816 8.2192.0690285 13.32377141.0689143 13.37428571l-.0004572.1546286.1554286-.0101715c.5923428-.0388571 1.2484571-.02 1.2549714-.0196571l.1517714.0045714-.0550857-4.5515428c.2435429.0221714.4858286.0221714.7214857.0221714 2.9325715 0 4.6146286-1.70182857 4.6146286-4.66914286 0-3.02857143-1.6766857-4.62937143-4.8489143-4.62937143zm-7.7942857 1.32045715c1.576 0 2.5168 2.13462857 2.5168 5.71028571 0 5.22480003-1.9472 5.63085713-2.5442286 5.63085713-1.5522285 0-2.5165714-2.1576-2.5165714-5.63085713 0-3.57565714.9510857-5.71028571 2.544-5.71028571zm.0416-1.7968c-2.5910857 0-4.2008 2.92205714-4.2008 7.62617143 0 4.52034281 1.5884572 7.32845711 4.1453714 7.32845711 2.5958858 0 4.1457143-2.7545143 4.1457143-7.36822854 0-4.67954286-1.5674285-7.5864-4.0902857-7.5864zm-5.8 14.76994284.0006857.1498286-.1509714-.0048c-.0060571-.0001143-.624-.0195429-1.2318857 0l-.1502857.0048v-5.38742859c-.6794286-.01657142-2.0626286-.00902857-3.8594286.02171429l.0413714 4.5473143h-.1467428c-.0070857 0-.7073143.0001143-1.2499429.0196571l-.1512.0053715.0004572-.1499429c.0001142-.0493714.0130285-5.03337143-.0550858-13.01725714l-.0013714-.14548572h.1467429c.0056 0 .5573714-.00022857 1.2093714-.01977143l.1491429-.00457142.0008.148c0 .00011428.0133714 2.71622857.0404571 6.70948571.5630857.0224 1.8681143.04925714 3.8617143.03462857-.0008-1.31337143-.0107429-2.78217143-.0216-4.33405714-.0070857-1.02491429-.0144-2.09588572-.0196572-3.20251429l-.0008-.14491428h.1461715c.0054857 0 .5579428-.00022857 1.2510857-.01977143l.1496-.00422857v.14834285c0 .06537143.0004571 6.62182858.0413714 14.64559999zm-8.4422857-3.8097143c0 1.2366857-.4281143 2.3208-1.2052571 3.0528-.6108572.5753143-1.4030858.8864-2.2470858.8864-.0584 0-.1173714-.0016-.1763428-.0045714-1.5667429-.0883429-3.4696-1.0241143-3.6414857-4.9802286l-.0060572-.1364571.1373715-.0133714c.0042285-.0002286.4209142-.0412572 1.3130285-.19691433l.1665143-.02902857.0041143.1676571c.0518857 2.1114286.8057143 3.3549715 2.0681143 3.4117715.5372571.0180571 1.0306286-.1617143 1.3922286-.5078857.3973714-.3802286.6074285-.9302858.6074285-1.5906286 0-.9209143-.1926857-1.82834287-2.5181714-2.80422859-2.0075429-.84251428-2.9025143-2.18102857-2.9025143-4.34022857 0-2.2584 1.404-3.83565714 3.4144-3.83565714 2.0163429 0 3.2758857 1.6552 3.4556572 4.54114286l.0075428.12217143-.1202286.02731428c-.0053714.00125714-.5370285.1216-1.2641142.24l-.1678858.02731429-.0012571-.16857143c-.0113143-1.43714286-.5187429-2.97268572-1.9097143-2.97268572-1.1785143 0-1.8821714.74731429-1.8821714 1.99908572 0 1.3064.6114286 2.00902857 2.4228571 2.78502857 2.6830857 1.14148571 3.0530286 2.75085714 3.0530286 4.3197714zm-43.76777143-.2604571c0-1.84708573-.8944-3.01382859-2.11942857-3.5777143 1.08891429-.66102857 1.71108571-1.88605714 1.71108571-3.20822857 0-2.35268572-1.45828571-3.84994286-4.5888-3.84994286-.81657142 0-2.56662857.11668572-3.34434285.21394286.25268571 4.35542857.42777143 10.13028567.48605714 14.68022857.48617143.0195429 1.12777143.0389714 2.13885714.0389714 3.51942857 0 5.71657143-1.0500571 5.71657143-4.2972571zm-4.93885714-8.14708573c1.12788571 0 1.6528.68068572 1.6528 1.63337143 0 1.22502857-.81668572 1.82777143-2.06102857 1.92491429-.03897143-1.24434286-.07782857-2.44994286-.11668572-3.51931429.17497143-.01942857.34994286-.03897143.52491429-.03897143zm.38891428 5.94994286c1.26388572 0 1.67222858.99165714 1.67222858 1.92491427 0 1.3611429-.83611429 1.9834286-2.19725715 2.0028572-.05828571-1.1666286-.11657143-2.4694858-.17497143-3.81108576.2528-.07782857.48617143-.11668571.7-.11668571zm14.38834289 6.94159997c-.7-3.7526857-1.7499429-10.18879997-2.5083429-15.76925711-1.2832-.07771429-3.1693714-.03885715-4.4526857.0584-.5833143 4.66662857-1.74994286 10.73314281-2.70262857 15.26365711l3.11097147.0194286.5444571-2.8388571 2.3138286-.1361143.5056 3.4416zm-5.1137143-12.19154283h.4860571l1.0305143 6.10548572-2.4693714.23337141zm15.2246857 10.65542853c-1.2833143-1.7693714-2.1582857-3.1888-3.2666286-5.3860571 1.3027429-.79714286 2.0416-2.19714286 2.0416-3.94708571 0-2.08057143-.9138285-4.54994286-5.2888-4.54994286-1.0889143 0-2.1194285.0584-2.8777143.15554286.1555429 4.72491428.2722286 9.72205711.2722286 14.73862861l2.9555429-.0389715c0-1.9054857-.0972572-3.8109714-.1361143-5.6581714h.4277714c.9138286 2.2166857 2.1971429 4.6472 3.0138286 6.0082286zm-4.0833143-9.39142853c0 1.3416-.7388571 2.08045714-2.0804571 2.08045714h-.1556572c-.0193143-1.43885714 0-2.78045714.0195429-3.94708571.1165714-.01954286.2526857-.01954286.3889143-.01954286 1.1470857 0 1.8276571.7 1.8276571 1.88617143zm13.1827429 10.40251433 1.7112-2.7027429c-2.9945143-1.6332571-5.0165715-3.26651429-5.9499429-4.10274286 1.9054857-1.26377143 3.9082286-2.79988571 5.8915429-4.37485714l-1.9443429-2.85828571c-1.3222857 1.28331428-3.5582857 3.11108571-5.1722286 4.37485714.0389715-2.29428572.1361143-4.12205714.1361143-5.63874286l-2.9942857-.03885714c0 3.81097143-.1166857 8.74982857-.1166857 15.38022857l2.9944-.0778286c0-1.0888-.0584-2.4109714-.0389714-4.0636571.9528.9138286 3.8110857 3.0526857 5.4832 4.1026286zm1.1278857-6.7859429c1.536-.79725714 3.1498286-1.67222857 4.6276571-2.50834286-.1556571-.33051428-.5056-1.01108571-.7194285-1.36102857-1.5166858.91382857-3.0332572 1.76937143-4.5888 2.60537143.1555428.36948571.5054857 1.0112.6805714 1.264zm.7971428 1.8666286c1.0500572.3305143 2.2166858.6610285 3.3638858.9332571.0971428-.3693714.2528-1.0305143.3304-1.43885713-1.0693715-.2528-2.2554286-.54434286-3.3053715-.85554286-.0972571.27222858-.3306285 1.06937139-.3889143 1.36114289z" fill="#323232" fill-rule="evenodd"/></svg>