<svg height="24" width="62" viewBox="0 0 103 40" xmlns="http://www.w3.org/2000/svg" version="1.1">
  <g fill="none">
    <path d="m102.273289 25.100689c.125017-.1590431.185909-.274067-.081823-.3833493-.275725-.11311-.519291-.3052631-.819371-.4889952-.027211.0290909-.098569.1060287-.184578.1986603-.081062-.2916747-.258027-.2208613-.451548-.1376077-.045479.0197129-.118548-.0313875-.17982-.0398086-.054993-.0074641-.111318-.0009569-.166881-.0007655.0137.055311.027401.1104306.065458.2610526-.056515-.0388517-.096665-.0539713-.119499-.0830622-.301413-.3888995-.7929217-.4342584-1.1877649-.652823-.25289-.1399043-.4553542-.3102392-.6446887-.5186603-.132439-.1454545-.294182-.2526315-.5078731.0007656.0487132-.1772249.0803007-.2914833.1166453-.4233493-.0780172-.0279426-.1434756-.0585646-.2117882-.0746411-.687503-.1621053-.809286-.7959809-1.0817754-1.3050718-.0411017-.0767464-.0898149-.1511962-.144427-.218756-.0483326-.0599043-.1101755-.1087081-.2066505-.2013397.1282527-.0210526.1925694-.0317703.2591694-.0426794-.0070406-.0223924-.0072308-.0455503-.0188383-.055311-.1370058-.1171292-.3097854-.16689-.4222444-.3454546-.0894344-.1423923-.3145426-.1984689-.4943628-.3014354.0097046-.0132057.0504258-.0652631.1115076-.1439234-.1860997-.0807656-.3898959-.1215311-.5272823-.2403828-.2357642-.2036364-.4741925-.4302392-.6277532-.6962679-.1335807-.2311962-.2903763-.2133972-.4793302-.1921532-.0915275.0101436-.1800104.0465072-.2171162.0566508-.0015223-.0945455.0380572-.2489953-.0137006-.2912919-.0814423-.0669857-.2243471-.058756-.3388992-.147177.0690738-.0378948.1383379-.0755981.2186385-.1198087-.1044669-.4778947-.475905-.3712918-.8216545-.3661244.0489035-.1046889.0841064-.1791387.1396698-.2974162-.2112173-.036555-.3940821-.0679426-.5510679-.0949283-.1139813-.0991387-.2281528-.1988516-.3421341-.2981818-.001332-.1376076-.0681223-.2281339-.2416631-.1894737.0190286-.0945454.0892441-.2302392.0487132-.2914832-.0795395-.1207656-.2072213-.2331101-.3402312-.2874641-.1398601-.0577991-.3189192-.0166507-.4627753-.0692823-.149755-.0545455-.3029352-.1454546-.4098759-.2623924-.2277722-.249378-.4133009-.537799-.6425954-.7852631-.100471-.1087082-.2707769-.1498565-.4018839-.2331101-.1714476-.1088995-.2237762-.2600957-.0841064-.4874641-.181723-.0411483-.3339517-.0752153-.4829456-.1087081-.0055183-.1816268-.0108463-.3691866-.0176966-.6063158-.1233052.0491866-.2171162.0868899-.3206317.1280383-.0281623-.0798086-.0635555-.1806699-.0989487-.2817225.010656-.0038278.0215023-.0074641.0317778-.0111005-.1196899-.1638277-.2389991-.3272727-.373341-.5108134.2696351-.1755024.0917178-.4042105.0117977-.6509091-.0753532.0078469-.1539413.0160766-.2317682.0239235-.0140811-.2708134-.0195994-.2755981-.3803815-.2637321.0247372-.0815311.045288-.150622.0909567-.3029665-.352029.0972249-.6589601.1854545-.9681747.2667943-.2616432.0688995-.5689549-.1146412-.6606727-.3875599-.3937015-.0635406-.5786594-.2711961-.6738024-.6388516-.0578469-.2252632-.2076019-.4260287-.308834-.6411484-.0744018-.159043-.1288236-.3278468-.2081728-.4838277-.0414823-.0821053-.1063698-.1919617-.1811522-.2112919-.4464107-.1155981-.6049189-.47674638-.7849293-.84382772-.2311974-.47157895-.4077827-.98086125-.8121403-1.34889952-.027972-.02545455-.0502354-.06794259-.0816326-.07559809-.3978878-.09818182-.571048-.4861244-.8844489-.69167464-.0230246-.01511962-.0416726-.05645933-.0603206-.05492823-.4842777.0369378-.4962657-.44861244-.7419248-.67425837-.2152133-.19732058-.4376576-.3862201-.6498263-.58602871-.0995196-.09320574-.1826745-.20287081-.3035061-.33894737 0 0 .0234052-.11521531-.003996-.12937799-.2487036-.12842105-.3349032-.31406699-.2574568-.58488038.0015223-.00555024-.1362447-.07942584-.1978973-.06679426-.0517578.0107177-.0869607.10124402-.1880025.13263158.0121783-.04822967.0110366-.10736842.0395795-.14258373.0643166-.07923445.1575567-.13760766.2114076-.22220096.0437658-.06870814.0470006-.16363637.0685029-.24669857-.0768755-.01186602-.1533704-.03272727-.2304362-.03425837-.3682032-.00688995-.736787-.0045933-1.1046097-.01818182-.0420532-.0015311-.1094144-.0769378-.1168355-.12555024-.0342515-.22717703-.1841968-.19961722-.3360449-.16708134-.1461396.03119618-.2922792.06430622-.434613.10870814-.2397603.07521531-.429285-.06124402-.6054898-.17090909-.0677418-.04229665-.0660292-.22851675-.0643166-.34870814.0049474-.36803827-.1923791-.60248804-.5613434-.61645933-.2960849-.01148325-.517768-.12861244-.695495-.36880383-.0549926-.07444976-.1771562-.11138755-.2757243-.13933014-.3952238-.11157895-.7933019-.21320574-1.1902383-.31827751.002664-.03196172.0057086-.06392345.007992-.09588517-.0922887.0830622-.1851482.16593302-.2920889.26200957-.0667903-.30105263-.3297655-.3138756-.5409828-.38105263-.172399-.05492823-.2403311-.14258373-.2997003-.31655502-.101803-.29645933-.1769659-.63004785-.5034965-.79349283-.0298749-.01511961-.030636-.0815311-.0557538-.11655502-.0972361-.13799043-.1862899-.28497608-.302174-.40516747-.0671709-.06966507-.1461396-.12842105-.2264402-.18507177h-72.56077259v39.93377987h102.52262009v-14.6158851c-.094191-.0725359-.164217-.1875598-.249274-.283445" fill="#231f20"/>
    <g fill="#fff" transform="translate(3 4)">
      <path d="m11.3589744 22.2983297h-2.8151925c0-2.2969263-1.05306-3.4020111-2.60017748-3.4020111-2.04172546 0-3.03020751 1.7983988-3.03020751 4.7671812v1.0832568c0 2.9685974 1.01013032 4.7671812 3.11625021 4.7671812 1.59023058 0 2.64292358-1.0834418 2.64292358-3.3801832h2.6864037c0 3.9001687-2.2993032 5.7636813-5.41536998 5.7636813-3.69635048 0-5.86668134-2.4486119-5.86668134-7.6923077 0-5.2438808 2.17033086-7.6923077 5.86668134-7.6923077 3.07277018 0 5.41536998 1.7551129 5.41536998 5.7855092"/>
      <path d="m16.1916401 25.304084v6.5933519h-2.7813837v-15.3846154h2.7813837v6.2343724h4.6936429v-6.2343724h2.7813837v15.3846154h-2.7813837v-6.5933519z"/>
      <path d="m25.7179487 16.5128205h10.1172679v2.5566678h-7.1539711v3.67801h6.135307v2.5564763h-6.135307v4.0367935h7.2931135v2.5566678h-10.2564103z"/>
      <path d="m48.1653135 31.8974359-2.0977688-9.8004266c-.1802378-.7849684-.3156088-2.1755112-.3156088-2.1755112h-.0905041s-.1802379 1.5251362-.315994 2.1755112l-2.0746613 9.8004266h-2.909802l-3.3609745-15.3846154h2.8647426l1.8495565 9.4640389c.135371.6727754.2930791 2.1529195.2930791 2.1529195h.0903115s.1580933-1.5027359.2932717-2.1529195l1.8722789-9.4640389h3.2706629l1.8495565 9.4640389c.1126487.6055744.2930792 2.1529195.2930792 2.1529195h.0901189s.1355635-1.3905429.2934643-2.1529195l1.894616-9.4640389h2.4811593l-3.3605893 15.3846154z"/>
      <path d="m55.4615385 16.5128205h10.1172652v2.5566678h-7.1539114v3.67801h6.1354253v2.5564763h-6.1354253v4.0367935h7.2930564v2.5566678h-10.2564102z"/>
      <path d="m69.5530469 22.9492901h3.0948438c1.3609743 0 1.9755957-.7625586 1.9755957-2.0408925 0-1.1213422-.5709608-1.8389093-1.8657883-1.8389093h-3.2046512zm0 8.9481458h-2.8094572v-15.3846154h6.2993077c3.0511833 0 4.6094735 1.8615008 4.6094735 4.3955771 0 1.8613092-.9657801 3.2966349-2.5242578 3.9471933l2.8975279 7.041845h-3.0509958l-2.5023338-6.4140695h-2.9192645z"/>
      <path d="m10.0552932 4.47956478v.26008211h-2.8054455v-.19496909c0-1.25675525-.7491181-2.05864426-1.99106743-2.05864426-1.32786576 0-2.05559615.67184796-2.05559615 1.58176539 0 3.01203207 7.13014918 1.23511257 7.13014918 6.69554207 0 3.4017852-2.1409641 4.7238385-5.18185716 4.7238385-2.69777572 0-5.07455306-1.5603077-5.07455306-4.6154401 0-.1733264.0210221-.3682955.0210221-.4766939h2.84785527c0 .0432853-.02120491.2384394-.02120491.3468378 0 1.408254.85660503 2.3616418 2.35538963 2.3616418 1.64886415 0 2.22706343-.8884598 2.22706343-1.7552768 0-3.5316413-7.13033204-1.4300817-7.13033204-7.0852953 0-2.81706294 2.31243142-4.1603889 4.90326861-4.1603889 2.61259053 0 4.77530803 1.32186827 4.77530803 4.37700068"/>
      <path d="m15.1718471.1025641v10.2929762c0 1.7412428.8492012 2.6671835 2.3297263 2.6671835 1.4810829 0 2.3520347-.9259407 2.3520347-2.6671835v-10.2929762h2.7874175v10.3812238c0 3.2841637-1.9382163 5.0033916-5.1394522 5.0033916-3.200864 0-5.116958-1.7192279-5.116958-5.0033916v-10.3812238z"/>
      <path d="m27.5462173 6.9876088h2.3188373c1.3825082 0 2.1406702-.8521588 2.1406702-2.26508435 0-1.25593385-.7804329-2.06329255-2.1406702-2.06329255h-2.3188373zm0 8.4995707h-2.8539096v-15.3846154h5.4628395c3.1660828 0 4.7935707 1.95110091 4.7935707 4.61996035 0 2.89305125-1.9177709 4.79916065-4.7935707 4.79916065h-2.6089299z"/>
      <path d="m37 .1025641h10.1172679v2.5566678h-7.1539711v3.67801h6.1355046v2.5564763h-6.1355046v4.0367935h7.2931135v2.5566678h-10.2564103z"/>
      <path d="m51.0915084 6.5390337h3.0948439c1.3607868 0 1.9755957-.76255866 1.9755957-2.04089255 0-1.12134217-.5709609-1.83890925-1.8657884-1.83890925h-3.2046512zm0 8.9481458h-2.8094571v-15.3846154h6.2993077c3.0509958 0 4.6094735 1.86150075 4.6094735 4.39557705 0 1.86130925-.9659676 3.29663495-2.5242578 3.94719335l2.8975279 7.041845h-3.0509959l-2.5023338-6.4140695h-2.9192645z"/>
    </g>
  </g>
</svg>
